<svg xmlns="http://www.w3.org/2000/svg" xmlns:xlink="http://www.w3.org/1999/xlink" width="96" height="97" viewBox="0 0 96 97">
  <defs>
    <clipPath id="clip-path">
      <rect width="96" height="97" fill="none"/>
    </clipPath>
  </defs>
  <g id="Repeat_Grid_1" data-name="Repeat Grid 1" clip-path="url(#clip-path)">
    <g id="Group_7000" data-name="Group 7000" transform="translate(-143 -221)">
      <rect id="Rectangle_2103" data-name="Rectangle 2103" width="96" height="97" rx="5" transform="translate(143 221)" fill="#0666eb" opacity="0.1"/>
      <g id="Icon_feather-camera" data-name="Icon feather-camera" transform="translate(166.623 238.049)">
        <path id="Path_2366" data-name="Path 2366" d="M49.3,39.265a4.346,4.346,0,0,1-4.346,4.346H5.846A4.346,4.346,0,0,1,1.5,39.265v-23.9a4.346,4.346,0,0,1,4.346-4.346h8.691L18.883,4.5H31.92l4.346,6.519h8.691A4.346,4.346,0,0,1,49.3,15.364Z" transform="translate(-1.5 -4.5)" fill="none" stroke="#0666eb" stroke-linecap="round" stroke-linejoin="round" stroke-width="2"/>
        <path id="Path_2367" data-name="Path 2367" d="M29.383,22.191A8.691,8.691,0,1,1,20.691,13.5a8.691,8.691,0,0,1,8.691,8.691Z" transform="translate(3.21 -0.463)" fill="none" stroke="#0666eb" stroke-linecap="round" stroke-linejoin="round" stroke-width="2"/>
      </g>
      <g id="Group_6999" data-name="Group 6999" transform="translate(180 286)">
        <rect id="Rectangle_2105" data-name="Rectangle 2105" width="22" height="21" rx="3" fill="#0666eb"/>
        <text id="Email_Mobile_numbe" data-name="Email / Mobile numbe" transform="translate(6 16)" fill="#fff" font-size="15" font-family="SegoeUI, Segoe UI"><tspan x="0" y="0">+</tspan></text>
      </g>
    </g>
  </g>
</svg>
