<svg xmlns="http://www.w3.org/2000/svg" width="24" height="16" viewBox="0 0 24 16">
  <path id="Icon_awesome-road" data-name="Icon awesome-road" d="M23.883,18.611,18.058,5.278A1.268,1.268,0,0,0,16.9,4.5H12.837l.1.965a.334.334,0,0,1-.332.368H11.392a.334.334,0,0,1-.332-.368l.1-.965H7.1a1.269,1.269,0,0,0-1.155.778L.117,18.611A1.331,1.331,0,0,0,1.272,20.5h8.2l.43-4.07a.667.667,0,0,1,.663-.6h2.867a.667.667,0,0,1,.663.6l.43,4.07h8.2A1.33,1.33,0,0,0,23.883,18.611ZM10.85,7.465a.333.333,0,0,1,.332-.3h1.637a.334.334,0,0,1,.332.3l.192,1.816a.5.5,0,0,1-.5.552H11.156a.5.5,0,0,1-.5-.552l.191-1.816Zm2.3,7.035h-2.3a.667.667,0,0,1-.663-.737l.211-2a.667.667,0,0,1,.663-.6H12.94a.667.667,0,0,1,.663.6l.211,2a.667.667,0,0,1-.663.737Z" transform="translate(0 -4.5)" fill="#0666eb"/>
</svg>
