<svg id="_023-facebook" data-name="023-facebook" xmlns="http://www.w3.org/2000/svg" width="32" height="32" viewBox="0 0 32 32">
  <g id="Group_7019" data-name="Group 7019">
    <path id="Path_4093" data-name="Path 4093" d="M23.975,0H8A8.037,8.037,0,0,0,0,8.025V24a8.032,8.032,0,0,0,8,8H23.975A8.042,8.042,0,0,0,32,23.975V8.025A8.042,8.042,0,0,0,23.975,0ZM20.292,16H17.27v9.9H13.46V16H11.429V11.937h1.778V10.21a3.933,3.933,0,0,1,4.241-4.19h3.124V9.4h-2.21c-.356,0-.838.229-.838,1.016v1.524h3.124Z" fill="#0666eb"/>
  </g>
</svg>
