<svg id="language" xmlns="http://www.w3.org/2000/svg" width="19.751" height="19.751" viewBox="0 0 19.751 19.751">
  <g id="Group_7028" data-name="Group 7028" transform="translate(4.64 5.285)">
    <g id="Group_7027" data-name="Group 7027">
      <path id="Path_4095" data-name="Path 4095" d="M121,137h-.248l-.463,2.315h1.173Z" transform="translate(-120.293 -137)" fill="#0666eb"/>
    </g>
  </g>
  <g id="Group_7030" data-name="Group 7030" transform="translate(14.712 9.914)">
    <g id="Group_7029" data-name="Group 7029">
      <path id="Path_4096" data-name="Path 4096" d="M381.374,257a6.047,6.047,0,0,0,.95,1.677,6.109,6.109,0,0,0,.989-1.677Z" transform="translate(-381.374 -257)" fill="#0666eb"/>
    </g>
  </g>
  <g id="Group_7032" data-name="Group 7032" transform="translate(9.361 3.51)">
    <g id="Group_7031" data-name="Group 7031">
      <path id="Path_4097" data-name="Path 4097" d="M251.317,91h-7.186l1.5,12.023a1.8,1.8,0,0,1-.429,1.317l-2.537,2.9h8.654a1.738,1.738,0,0,0,1.736-1.736V92.774A1.771,1.771,0,0,0,251.317,91Zm0,6.4h-.155a7.343,7.343,0,0,1-1.394,2.535c.425.389.88.707,1.332,1.064a.578.578,0,1,1-.723.9c-.491-.388-.952-.712-1.413-1.135-.461.423-.883.747-1.374,1.135a.578.578,0,1,1-.723-.9c.452-.357.868-.676,1.293-1.064A7.3,7.3,0,0,1,246.8,97.4h-.155a.579.579,0,1,1,0-1.157h1.736v-.579a.579.579,0,0,1,1.157,0v.579h1.774a.579.579,0,1,1,0,1.157Z" transform="translate(-242.663 -91)" fill="#0666eb"/>
    </g>
  </g>
  <g id="Group_7034" data-name="Group 7034">
    <g id="Group_7033" data-name="Group 7033">
      <path id="Path_4098" data-name="Path 4098" d="M9.419,1.521A1.738,1.738,0,0,0,7.7,0H1.736A1.738,1.738,0,0,0,0,1.736V14.543a1.738,1.738,0,0,0,1.736,1.736h9.125c.169-.193.31-.314.316-.566C11.179,15.65,9.427,1.583,9.419,1.521ZM7.1,11.06a.578.578,0,0,1-.681-.454l-.37-1.849H4.409l-.37,1.849A.579.579,0,1,1,2.9,10.379L4.062,4.593a.579.579,0,0,1,.567-.465h1.2a.579.579,0,0,1,.567.465L7.55,10.379A.579.579,0,0,1,7.1,11.06Z" fill="#0666eb"/>
    </g>
  </g>
  <g id="Group_7036" data-name="Group 7036" transform="translate(6.761 17.436)">
    <g id="Group_7035" data-name="Group 7035">
      <path id="Path_4099" data-name="Path 4099" d="M175.261,452l.1.794a1.75,1.75,0,0,0,1,1.345L178.3,452Z" transform="translate(-175.261 -452)" fill="#0666eb"/>
    </g>
  </g>
</svg>
