<svg id="log-out" xmlns="http://www.w3.org/2000/svg" width="20" height="20" viewBox="0 0 20 20">
  <path id="Path_4082" data-name="Path 4082" d="M12.145,10.833a.822.822,0,0,0-.81.833V15a.823.823,0,0,1-.81.833H8.1V3.333a1.677,1.677,0,0,0-1.1-1.584l-.24-.082h3.772a.823.823,0,0,1,.81.833V5a.81.81,0,1,0,1.619,0V2.5A2.468,2.468,0,0,0,10.526,0h-8.7a.617.617,0,0,0-.087.018C1.7.015,1.659,0,1.619,0A1.645,1.645,0,0,0,0,1.667v15a1.677,1.677,0,0,0,1.1,1.584l4.873,1.672A1.626,1.626,0,0,0,8.1,18.333V17.5h2.429A2.468,2.468,0,0,0,12.955,15V11.667a.822.822,0,0,0-.81-.833Z" transform="translate(0)" fill="#ff3b30"/>
  <path id="Path_4083" data-name="Path 4083" d="M21.669,8.476,18.431,5.237a.809.809,0,0,0-1.382.572V8.239H13.81a.81.81,0,1,0,0,1.619h3.239v2.429a.809.809,0,0,0,1.382.572l3.239-3.239A.809.809,0,0,0,21.669,8.476Z" transform="translate(-1.907 -0.749)" fill="#ff3b30"/>
</svg>
